# xmcd
#
# Track frame offsets: 
#        150
#        7991
#        16446
#        25408
#        34041
#        44534
#        55549
#        63383
#        73334
#        84492
#        96934
#        106529
#
# Disc length: 1533 seconds
#
# Revision: 0
# Processed by: cddbd v1.5.2PL0 Copyright (c) Steve Scherf et al.
# Submitted via: ExactAudioCopy v1.0b3
#
DISCID=9205fb0c
DTITLE=Various Artist - Hatfield and McCoy Funniest Bluegrass Songs Eve
DTITLE=r!
DYEAR=1900
DGENRE=Bluegrass
TTITLE0=H&Mfbse01-Pig in a Pen
TTITLE1=H&Mfbse02-Always Marry an Ugly Girl
TTITLE2=H&Mfbse03-Mountain Dew
TTITLE3=H&Mfbse04-Who Needs a Man
TTITLE4=H&Mfbse05-Old Slew Foot
TTITLE5=H&Mfbse06-Harold's Super Service
TTITLE6=H&Mfbse07-Crawdad Sons
TTITLE7=H&Mfbse08-Dooly
TTITLE8=H&Mfbse09-The Kind of Woman I Got
TTITLE9=H&Mfbse10-In the Jailhouse Now
TTITLE10=H&Mfbse11-Salty Dog Blues
TTITLE11=H&Mfbse12-Whoa Nule, Whoa
EXTD=
EXTT0=
EXTT1=
EXTT2=
EXTT3=
EXTT4=
EXTT5=
EXTT6=
EXTT7=
EXTT8=
EXTT9=
EXTT10=
EXTT11=
PLAYORDER=
